<svg id="Capa_1" data-name="Capa 1" xmlns="http://www.w3.org/2000/svg" viewBox="0 0 2993.62 2775.75"><defs><style>.cls-1{fill:#ec0000;}.cls-2{fill:#e7e7e7;}.cls-3{fill:none;}</style></defs><title>Icono-conversación</title><path d="M2879.07-269a181.32,181.32,0,0,1-24.89-1.39c-1.62-.2-3.24-.45-4.86-.7-8.77-1.39-14.38,3.78-21.93,7-16.36,7-33.06,13.46-50.44,17.46a190.14,190.14,0,0,1-28.91,4.33c-5.26.35-22.55,1.06-26.31-3.14-5.2-5.84,9.72-14.47,13.22-17.47a142.06,142.06,0,0,0,16.27-15.9c6.13-7.26,11.22-15.62,13.74-24.84,2.39-8.78-5.24-11.7-10.51-17.43-32.6-35.46-45.24-85.57-29.06-131.65,1.18-3.35,2.5-6.66,4-9.9,11-24.27,28.93-45.18,50.58-60.58,33.61-23.91,76.49-32.62,117.14-28.49,34,3.46,67.15,16.11,93.22,38.47,24.18,20.73,41.71,49.13,46.88,80.77a134.41,134.41,0,0,1-8.63,72.93C3010-315,2966.92-285.94,2921-274.45A182.54,182.54,0,0,1,2879.07-269ZM2950-339.55c8.15-12.93,7.7-36.5,4.84-51-8-40.35-50.36-51.36-85.8-51.91-1.72,0-2-.3-2-2v-21.28c0-1.11,0-2.22-.08-3.33a3.69,3.69,0,0,0-2.74-3.37,4.29,4.29,0,0,0-4.27.34c-1.69,1.34-3.35,2.73-5,4.06-4,3.1-7.92,6.16-11.86,9.26-3,2.39-6,4.85-9.08,7.24-4.51,3.53-9.06,7-13.57,10.53q-8,6.27-16,12.61c-1.33,1.06-2.53,2.13-2.61,4.15-.08,2.2,1,3.48,2.58,4.65,3.37,2.53,6.73,5.07,10.05,7.66,2.53,2,5,4.06,7.48,6,5.59,4.38,11.2,8.73,16.8,13.1L2852.52-382c2.51,2,5,4,7.54,5.86a4.18,4.18,0,0,0,4.38.15,3.85,3.85,0,0,0,2.55-3.76c0-7.52,0-15,0-22.57,0-1.83,0-1.93,1.83-1.82,17,1,34.21.58,50.4,7,13.35,5.28,22.88,15.1,27.41,28.73a56.19,56.19,0,0,1,2.64,14C2949.55-349.71,2950-344.5,2950-339.55Z" transform="translate(-45.26 581.8)"/><path d="M2361.12-438.85c-1.24,0-1.44-.22-1.44-1.48,0-5.13,0-10.26,0-15.39,0-.8,0-1.61,0-2.41a2.69,2.69,0,0,0-2-2.44,3.08,3.08,0,0,0-3.08.25c-1.23,1-2.43,2-3.66,2.94-2.86,2.23-5.73,4.45-8.58,6.69-2.2,1.74-4.36,3.51-6.57,5.24-3.26,2.55-6.55,5.07-9.82,7.62q-5.82,4.54-11.61,9.13a3.89,3.89,0,0,0-1.88,3,3.78,3.78,0,0,0,1.86,3.37q3.66,2.74,7.27,5.54c1.83,1.43,3.59,2.94,5.42,4.37q6.06,4.76,12.15,9.48l10.07,7.87c1.81,1.42,3.59,2.9,5.45,4.25a3,3,0,0,0,3.18.1,2.78,2.78,0,0,0,1.84-2.72c0-5.44,0-10.88,0-16.32,0-1.33,0-1.4,1.32-1.32,12.3.74,24.75.42,36.46,5a33,33,0,0,1,19.83,20.79,40.34,40.34,0,0,1,1.91,10.1c.21,3.43.5,7.19.49,10.77,5.9-9.35,5.58-26.41,3.51-36.91C2417.44-430.49,2386.76-438.45,2361.12-438.85Z" transform="translate(-45.26 581.8)"/><path d="M2368.09-581.8a175.57,175.57,0,0,0-175.57,175.57,175.58,175.58,0,0,0,175.57,175.57,175.57,175.57,0,0,0,175.57-175.57A175.56,175.56,0,0,0,2368.09-581.8Zm108.46,203c-13.41,32.24-44.58,53.24-77.79,61.56a132.16,132.16,0,0,1-30.35,3.94,132.94,132.94,0,0,1-18-1c-1.17-.14-2.34-.32-3.51-.51-6.35-1-10.41,2.74-15.87,5.07-11.84,5.05-23.92,9.74-36.49,12.63a112.9,112.9,0,0,1-21.43,3.16c-3.28.09-15.8.74-18.52-2.3-3.77-4.23,7-10.47,9.56-12.64a101.46,101.46,0,0,0,11.77-11.5c4.44-5.25,9.75-11.06,9.94-18,.17-6.15-3.79-8.45-7.6-12.6-23.59-25.66-32.73-61.91-21-95.24.86-2.43,1.81-4.82,2.87-7.17a110.09,110.09,0,0,1,36.59-43.83c24.32-17.29,55.34-23.6,84.75-20.61,24.58,2.51,48.58,11.66,67.44,27.83,17.49,15,30.18,35.55,33.91,58.44A97.2,97.2,0,0,1,2476.55-378.84Z" transform="translate(-45.26 581.8)"/><path d="M2086.69,87.63c0,4.42.18,8.14,0,11.83-.69,11.9-8.21,21.26-21.27,20a20.63,20.63,0,0,1-11.24-5c-17.64-16.24-34.88-32.92-52.35-49.36a7.64,7.64,0,0,0-4.67-2.16c-20.36.06-40.72.44-61.08.42a15.48,15.48,0,0,0-12.38,5.26c-11.48,11.95-23.63,23.25-35.51,34.82-8.82,8.58-17.79,17-26.37,25.83-7.5,7.7-16.35,9.75-24.87,1.07-2.34-2.39-3.68-6.73-3.75-10.21-.37-17.23-.16-34.46-.16-51.7V63.84h-7.71c-15.8-.05-28.09-7.15-36.28-20.14a39,39,0,0,1-5.94-19.47q-.71-86.76-.18-173.52c.08-16,8.1-28.42,22.1-36.12a35.8,35.8,0,0,1,16.47-4.13c106.78-.25,213.55-.1,320.32-.31a40.73,40.73,0,0,1,38.47,27.52,65.79,65.79,0,0,1,3.44,19.88q.41,81.15,0,162.29c-.1,17.45-7.8,31-24,39-2.75,1.36-3.79,3.2-1.95,6.33a71.64,71.64,0,0,1,10.31,31.46c.36,4.82,2,9.34-.08,14.32-2.51,5.9-7,9.26-13.61,8.8-5.24-.36-10.29-5.19-11.81-10.48-.71-2.46-2-5.69-4-6.67-7.47-3.71-15.12-7.42-23.12-9.65C2106.34,90.37,2096.78,89.4,2086.69,87.63Zm-233.91,21.59c1.19-1,1.51-1.22,1.78-1.49,20.81-20.13,41.68-40.2,62.31-60.5a10.4,10.4,0,0,1,8.09-3.32q34.88.11,69.74,0a8.74,8.74,0,0,0,5.51-1.92c18.27-17.22,36.38-34.61,54.6-51.89,3.81-3.6,15.65-5.33,19.91-2.86,7.43,4.29,12,10.5,11.93,19.45a57,57,0,0,0,.15,9c.18,1.23,1.75,2.64,3,3.21a30.3,30.3,0,0,0,6.38,1.62,91.51,91.51,0,0,1,38.23,17.76c3.14,2.42,5.78,7.77,11.19,5.27,4.07-1.88,8.24-4,11.54-6.93,4.79-4.27,5.44-10.3,5.42-16.59q-.2-79.12-.07-158.25c0-3.9.13-7.8-.05-11.69-.54-11.6-9.16-19.85-20.81-19.85q-158.82,0-317.65-.18c-12.12,0-21.94,11.6-21.61,21.68.36,10.93.06,21.88.06,32.82q0,67.66,0,135.33c0,3-.48,6.24.5,8.92,3.28,9,12.87,15.19,22.6,15.21h27.22ZM2142.6,80.54a9.79,9.79,0,0,0-.86-3.56,105.52,105.52,0,0,0-6.14-8.84c-13.85-18.32-32.35-28-55.2-29.53-4.42-.3-8.83-.81-13.89-1.29V7c-3.57,3.43-6.06,5.84-8.57,8.21-12.6,11.91-25.15,23.87-37.87,35.65-2.22,2.06-1.78,3.21.06,4.93q21.38,20.06,42.72,40.15a31.13,31.13,0,0,0,4,2.62c0-9.43.11-17.81-.06-26.18-.07-3.27.94-4.8,4.33-4.49,4.73.43,9.46,1,14.2,1.08,10,.11,19.82.89,29.45,3.67C2124,75.3,2133.24,77.88,2142.6,80.54Z" transform="translate(-45.26 581.8)"/><path d="M1981.35-114.51c-33,0-66,.09-98.94-.13a19.09,19.09,0,0,1-9.77-3.16c-3.43-2.28-4.55-6.29-3-10.34,1.73-4.52,6.58-7,12-6.62,2.68.18,5.37.37,8.06.37q95.57,0,191.14,0c4.83,0,9.14.06,12.1,5.42,2.42,4.4-1,11.56-4.41,12.73a27.92,27.92,0,0,1-8.68,1.65C2047-114.47,2014.18-114.51,1981.35-114.51Z" transform="translate(-45.26 581.8)"/><path d="M1981.53-96.24h101.15c9,0,13.62,7,9.3,14.75-1.31,2.37-4.94,3.55-7.67,5-.94.5-2.35.14-3.55.14q-99.59,0-199.15,0c-4.73,0-8.8-.86-11.08-5.55-3.52-7.21.86-14.34,9-14.35Q1930.51-96.28,1981.53-96.24Z" transform="translate(-45.26 581.8)"/><path d="M1981.44-38.43c-33.87,0-67.74-.08-101.61.1-5.11,0-8.11-2.25-10.06-6.41a8.05,8.05,0,0,1,2.76-10.33,17.64,17.64,0,0,1,9.61-3.06c37.62-.2,75.24-.13,112.86-.13q43.38,0,86.77,0c4.27,0,8.07,1,10.41,5.19,4,7.11,0,14.56-8.23,14.59C2049.78-38.37,2015.61-38.42,1981.44-38.43Z" transform="translate(-45.26 581.8)"/><path d="M1939.52-19.09c20.1,0,40.19.05,60.29,0a9.38,9.38,0,0,1,9.2,6.37c1.41,3.73.89,8.2-3.12,10.7-2.24,1.39-5,2.72-7.56,2.73-39.44.16-78.88.12-118.32.09A11.16,11.16,0,0,1,1869.39-7c-1.24-4.55.49-8.3,4.53-10.53a14.32,14.32,0,0,1,6.66-1.52c19.65-.11,39.3-.07,58.94-.07Z" transform="translate(-45.26 581.8)"/><path d="M1590.52-124.37c0-2.56.08-5.13,0-7.69a13.27,13.27,0,0,0-13.68-13.06c-69.66,0-139.32.06-209-.11-8,0-14.43,7.62-14.21,14.26.23,7.19,0,14.39,0,21.59q0,44.52,0,89c0,2-.32,4.1.33,5.86,2.16,5.93,8.47,10,14.87,10,5.88,0,11.77,0,17.91,0V38.46c.78-.65,1-.8,1.17-1,13.68-13.25,27.41-26.44,41-39.8a6.84,6.84,0,0,1,5.33-2.18q22.93.06,45.88,0a5.78,5.78,0,0,0,3.62-1.27c12-11.32,23.93-22.76,35.92-34.13,2.5-2.37,10.29-3.51,13.1-1.88,4.89,2.82,7.88,6.9,7.85,12.8a37.43,37.43,0,0,0,.09,5.9,3.62,3.62,0,0,0,2,2.11,20.2,20.2,0,0,0,4.2,1.06A60.24,60.24,0,0,1,1572-8.26c2.07,1.6,3.81,5.11,7.37,3.47A30.64,30.64,0,0,0,1587-9.35c3.15-2.81,3.57-6.77,3.56-10.91Q1590.44-72.31,1590.52-124.37Zm-103,89.63a10.25,10.25,0,0,1-5,1.8q-38.91.15-77.84,0a7.33,7.33,0,0,1-7-5.11,5.71,5.71,0,0,1,3-6.93,9.53,9.53,0,0,1,4.39-1c12.92-.08,25.84,0,38.77,0v0c13.22,0,26.44,0,39.66,0a6.16,6.16,0,0,1,6,4.19C1490.46-39.32,1490.11-36.39,1487.48-34.74Zm51.35-24c-22.48.07-45,0-67.44,0-22.28,0-44.56-.06-66.84.06a6.6,6.6,0,0,1-6.62-4.22,5.29,5.29,0,0,1,1.82-6.79,11.53,11.53,0,0,1,6.32-2c24.75-.13,49.49-.09,74.24-.09q28.55,0,57.09,0c2.81,0,5.3.67,6.84,3.41C1546.87-63.62,1544.23-58.71,1538.83-58.7Zm-134.51-38q33.57,0,67.13,0H1538c5.9,0,9,4.59,6.12,9.7-.86,1.56-3.25,2.34-5,3.28a5.49,5.49,0,0,1-2.34.09q-65.51,0-131,0c-3.11,0-5.79-.57-7.29-3.65C1396.11-92,1399-96.69,1404.32-96.69Zm137.52-13.17a18.4,18.4,0,0,1-5.71,1.09c-21.6.07-43.2,0-64.79,0s-43.4.06-65.09-.09a12.51,12.51,0,0,1-6.43-2.08,5.46,5.46,0,0,1-2-6.8c1.14-3,4.34-4.6,7.9-4.36,1.76.12,3.53.25,5.3.25h125.74c3.18,0,6,0,8,3.56C1546.34-115.34,1544.12-110.62,1541.84-109.86Z" transform="translate(-45.26 581.8)"/><path d="M1572.81,11.43C1563.69-.61,1551.53-7,1536.5-8c-2.91-.2-5.81-.54-9.14-.85V-28.78c-2.35,2.26-4,3.84-5.64,5.4-8.29,7.84-16.54,15.71-24.91,23.45-1.46,1.36-1.18,2.11,0,3.25q14.07,13.18,28.11,26.41a19.5,19.5,0,0,0,2.65,1.72c0-6.2.08-11.71,0-17.22,0-2.15.61-3.16,2.85-3,3.11.28,6.22.68,9.34.71a71.89,71.89,0,0,1,19.37,2.41c6,1.75,12.12,3.44,18.28,5.19a6.51,6.51,0,0,0-.56-2.34C1575.62,15.23,1574.23,13.31,1572.81,11.43Z" transform="translate(-45.26 581.8)"/><path d="M1472.62-232.66A175.57,175.57,0,0,0,1297.05-57.08a175.57,175.57,0,0,0,175.57,175.57A175.58,175.58,0,0,0,1648.19-57.08,175.58,175.58,0,0,0,1472.62-232.66Zm116.07,238c-1.8.89-2.49,2.11-1.27,4.16a47.15,47.15,0,0,1,6.77,20.7c.24,3.17,1.35,6.14,0,9.42-1.65,3.88-4.61,6.09-9,5.79-3.45-.24-6.77-3.41-7.77-6.9-.47-1.61-1.34-3.73-2.65-4.38a88.44,88.44,0,0,0-15.21-6.35c-6-1.67-12.29-2.31-18.93-3.48,0,2.92.12,5.36,0,7.79-.46,7.83-5.41,14-14,13.17a13.58,13.58,0,0,1-7.39-3.26c-11.61-10.69-23-21.66-34.44-32.48a5.08,5.08,0,0,0-3.07-1.42c-13.39,0-26.79.3-40.18.28a10.19,10.19,0,0,0-8.15,3.46c-7.55,7.86-15.54,15.3-23.36,22.91-5.8,5.64-11.7,11.19-17.35,17-4.93,5.06-10.75,6.41-16.36.7a10.68,10.68,0,0,1-2.47-6.72c-.24-11.33-.1-22.67-.1-34V8.61h-5.07c-10.39,0-18.48-4.71-23.87-13.25a25.8,25.8,0,0,1-3.91-12.81q-.45-57.07-.12-114.15c.06-10.55,5.33-18.7,14.54-23.77a23.56,23.56,0,0,1,10.84-2.71c70.24-.16,140.48-.07,210.73-.21a26.8,26.8,0,0,1,25.3,18.11,43.2,43.2,0,0,1,2.26,13.08q.27,53.37,0,106.76C1604.41-8.86,1599.34,0,1588.69,5.29Z" transform="translate(-45.26 581.8)"/><circle class="cls-1" cx="199.86" cy="2152.3" r="199.52"/><circle class="cls-2" cx="199.13" cy="2152.3" r="162.56"/><path class="cls-3" d="M371.69,1503.27a42,42,0,0,0-2.17-12.56,25.75,25.75,0,0,0-24.3-17.38c-67.44.13-134.89,0-202.33.2a22.67,22.67,0,0,0-10.41,2.6c-8.84,4.87-13.9,12.69-13.95,22.82q-.3,54.79.11,109.6a24.75,24.75,0,0,0,3.75,12.3,25.94,25.94,0,0,0,22.92,12.72h4.87v2.94c0,10.88-.13,21.77.1,32.65a10.25,10.25,0,0,0,2.37,6.45c5.38,5.48,11,4.19,15.71-.68,5.42-5.57,11.08-10.89,16.65-16.31,7.51-7.31,15.18-14.45,22.43-22a9.75,9.75,0,0,1,7.82-3.33c12.86,0,25.72-.23,38.59-.26a4.88,4.88,0,0,1,3,1.36c11,10.38,21.92,20.92,33.06,31.18a13,13,0,0,0,7.1,3.13c8.25.78,13-5.13,13.43-12.65.14-2.33,0-4.67,0-7.47,6.37,1.12,12.41,1.73,18.17,3.34A85.27,85.27,0,0,1,343.2,1658c1.25.63,2.09,2.66,2.54,4.22,1,3.34,4.15,6.39,7.46,6.62,4.17.28,7-1.84,8.6-5.56,1.34-3.15.27-6,0-9a45.13,45.13,0,0,0-6.5-19.87c-1.17-2-.51-3.14,1.22-4,10.23-5,15.09-13.59,15.15-24.62Q372,1554.53,371.69,1503.27Zm-43.51,135.86a68.63,68.63,0,0,0-18.6-2.31c-3,0-6-.42-9-.69-2.15-.2-2.78.77-2.74,2.84.11,5.28,0,10.58,0,16.53a19.37,19.37,0,0,1-2.55-1.65q-13.51-12.66-27-25.36c-1.17-1.09-1.44-1.82,0-3.11,8-7.44,16-15,23.92-22.52,1.59-1.5,3.16-3,5.41-5.18v19.14c3.2.3,6,.62,8.78.81,14.43,1,26.11,7.09,34.86,18.65,1.37,1.81,2.7,3.65,3.88,5.58a6.23,6.23,0,0,1,.54,2.25C339.82,1642.44,334,1640.81,328.18,1639.13Zm26.76-22.8a29.5,29.5,0,0,1-7.29,4.38c-3.42,1.57-5.09-1.8-7.07-3.33a57.93,57.93,0,0,0-24.15-11.22,18.75,18.75,0,0,1-4-1,3.42,3.42,0,0,1-1.91-2,35.58,35.58,0,0,1-.1-5.66c0-5.66-2.84-9.58-7.53-12.29-2.7-1.56-10.17-.47-12.58,1.81-11.51,10.91-22.94,21.9-34.49,32.77a5.44,5.44,0,0,1-3.47,1.21q-22,.12-44,0a6.61,6.61,0,0,0-5.12,2.09c-13,12.83-26.21,25.5-39.35,38.22-.18.17-.37.32-1.12.94V1621h-17.2c-6.14,0-12.2-3.92-14.28-9.6-.61-1.7-.31-3.75-.31-5.64q0-42.73,0-85.47c0-6.91.19-13.83,0-20.73-.21-6.37,6-13.72,13.65-13.7q100.32.24,200.64.11a12.74,12.74,0,0,1,13.14,12.54c.12,2.46,0,4.92,0,7.38q0,50,0,100C358.37,1609.83,358,1613.63,354.94,1616.33Z" transform="translate(-45.26 581.8)"/><path class="cls-1" d="M358.32,1505.89c0-2.46.08-4.92,0-7.38A12.74,12.74,0,0,0,345.14,1486q-100.32,0-200.64-.11c-7.65,0-13.86,7.33-13.65,13.7.23,6.9,0,13.82,0,20.73q0,42.74,0,85.47c0,1.89-.3,3.94.31,5.64,2.08,5.68,8.14,9.59,14.28,9.6h17.2v41.23c.75-.62.94-.77,1.12-.94,13.14-12.72,26.32-25.39,39.35-38.22a6.61,6.61,0,0,1,5.12-2.09q22,.06,44,0a5.44,5.44,0,0,0,3.47-1.21c11.55-10.87,23-21.86,34.49-32.77,2.41-2.28,9.88-3.37,12.58-1.81,4.69,2.71,7.57,6.63,7.53,12.29a35.58,35.58,0,0,0,.1,5.66,3.42,3.42,0,0,0,1.91,2,18.75,18.75,0,0,0,4,1,57.93,57.93,0,0,1,24.15,11.22c2,1.53,3.65,4.9,7.07,3.33a29.5,29.5,0,0,0,7.29-4.38c3-2.7,3.43-6.5,3.42-10.48Q358.24,1555.87,358.32,1505.89Zm-168.4,58.3a12.92,12.92,0,1,1,12.93-12.92A12.91,12.91,0,0,1,189.92,1564.19Zm55.44,0a12.92,12.92,0,1,1,12.93-12.92A12.92,12.92,0,0,1,245.36,1564.19Zm55.44,0a12.92,12.92,0,1,1,12.93-12.92A12.92,12.92,0,0,1,300.8,1564.19Z" transform="translate(-45.26 581.8)"/><path class="cls-1" d="M341.31,1636.28c-8.75-11.56-20.43-17.67-34.86-18.65-2.8-.19-5.58-.51-8.78-.81v-19.14c-2.25,2.16-3.82,3.68-5.41,5.18-8,7.52-15.88,15.08-23.92,22.52-1.4,1.29-1.13,2,0,3.11q13.5,12.66,27,25.36a19.37,19.37,0,0,0,2.55,1.65c0-6,.07-11.25,0-16.53,0-2.07.59-3,2.74-2.84,3,.27,6,.66,9,.69a68.63,68.63,0,0,1,18.6,2.31c5.81,1.68,11.64,3.31,17.55,5a6.23,6.23,0,0,0-.54-2.25C344,1639.93,342.68,1638.09,341.31,1636.28Z" transform="translate(-45.26 581.8)"/><path class="cls-1" d="M245.12,1401.92A168.58,168.58,0,1,0,413.69,1570.5,168.59,168.59,0,0,0,245.12,1401.92Zm111.44,228.47c-1.73.85-2.39,2-1.22,4a45.13,45.13,0,0,1,6.5,19.87c.23,3,1.3,5.9,0,9-1.59,3.72-4.43,5.84-8.6,5.56-3.31-.23-6.5-3.28-7.46-6.62-.45-1.56-1.29-3.59-2.54-4.22a85.27,85.27,0,0,0-14.61-6.09c-5.76-1.61-11.8-2.22-18.17-3.34,0,2.8.11,5.14,0,7.47-.43,7.52-5.18,13.43-13.43,12.65a13,13,0,0,1-7.1-3.13c-11.14-10.26-22-20.8-33.06-31.18a4.88,4.88,0,0,0-3-1.36c-12.87,0-25.73.28-38.59.26a9.75,9.75,0,0,0-7.82,3.33c-7.25,7.54-14.92,14.68-22.43,22-5.57,5.42-11.23,10.74-16.65,16.31-4.74,4.87-10.33,6.16-15.71.68a10.25,10.25,0,0,1-2.37-6.45c-.23-10.88-.1-21.77-.1-32.65v-2.94h-4.87a25.94,25.94,0,0,1-22.92-12.72,24.75,24.75,0,0,1-3.75-12.3q-.44-54.79-.11-109.6c0-10.13,5.11-18,13.95-22.82a22.67,22.67,0,0,1,10.41-2.6c67.44-.16,134.89-.07,202.33-.2a25.75,25.75,0,0,1,24.3,17.38,42,42,0,0,1,2.17,12.56q.26,51.26,0,102.5C371.65,1616.8,366.79,1625.35,356.56,1630.39Z" transform="translate(-45.26 581.8)"/><circle class="cls-1" cx="198.43" cy="1731.86" r="198.43"/><circle class="cls-2" cx="198.43" cy="1725.99" r="167.62"/><path class="cls-1" d="M364.91,1027.66a168.61,168.61,0,1,0,47.4,117.2A168.11,168.11,0,0,0,364.91,1027.66Zm-2.46,174.17a18.58,18.58,0,0,1-2.83,9.3,19.59,19.59,0,0,1-17.32,9.61h-3.68V1223c0,8.23.1,16.46-.08,24.68a7.75,7.75,0,0,1-1.79,4.88c-4.07,4.15-8.3,3.17-11.88-.51-4.09-4.21-8.38-8.24-12.58-12.33-5.68-5.52-11.48-10.92-17-16.62a7.36,7.36,0,0,0-5.91-2.52q-3.44,0-6.88,0h-1.66l-14.21-.13h-2.56v-.21H191.48l-1.63-.08a7.11,7.11,0,0,1-1.59-.24l-5.64-1.5c-6.22-3.07-9.81-7.85-11-13.95-4,3.88-8,7.71-11.93,11.7s-8.34,5-12.69.55a8.21,8.21,0,0,1-1.91-5.21c-.19-8.79-.09-17.59-.09-26.39v-2.37h-3.93a21,21,0,0,1-18.52-10.28,20,20,0,0,1-3-9.94q-.36-44.28-.09-88.57c0-8.18,4.13-14.5,11.28-18.43a18.17,18.17,0,0,1,8.41-2.11c54.49-.13,109,0,163.49-.16a20.82,20.82,0,0,1,19.64,14,33.87,33.87,0,0,1,1.75,10.16q.06,11.17.09,22.36l20,0a17.18,17.18,0,0,1,7.87,2c6.68,3.68,10.51,9.59,10.55,17.25Q362.77,1160.4,362.45,1201.83Z" transform="translate(-45.26 581.8)"/><path class="cls-1" d="M313.19,1109.15v-9.42q0-10.12,0-20.23c0-2,.06-4,0-6a10.3,10.3,0,0,0-10.62-10.13q-81.08,0-162.14-.09c-6.18,0-11.19,5.92-11,11.07.18,5.57,0,11.16,0,16.75q0,34.53,0,69.07c0,1.52-.25,3.18.25,4.55a12.48,12.48,0,0,0,11.54,7.76H155.1v33.32c.61-.51.77-.62.91-.76l15.12-14.62q5.09-4.92,10.15-9.87l6.53-6.39a5.28,5.28,0,0,1,4.13-1.69q15,0,30,0h0l22.42-.06,38.82-.11,19.58.23a3,3,0,0,0,.42,0h.07l.37,0h0l.43-.1a4.12,4.12,0,0,0,.51-.2,23.45,23.45,0,0,0,5.88-3.53c2.45-2.18,2.78-5.26,2.77-8.47Q313.17,1134.71,313.19,1109.15Zm-131.9,16.59a10.55,10.55,0,0,1-4.17.87,10.45,10.45,0,0,1,0-20.89h0a10.45,10.45,0,0,1,4.17,20Zm40.63.87a10.44,10.44,0,1,1,10.44-10.45A10.44,10.44,0,0,1,221.92,1126.61Zm44.8,0a10.44,10.44,0,0,1-10.44-10.45,10.44,10.44,0,0,1,20.88,0A10.44,10.44,0,0,1,266.72,1126.61Z" transform="translate(-45.26 581.8)"/><path class="cls-1" d="M324,1160.21c0,8.91-4,15.82-12.24,19.89l-6,1.6a8,8,0,0,1-1.7.26l-1.74.08H224.65v.22l-2.39,0h-.34l-15.19.14H205q-3.67,0-7.35,0a7.89,7.89,0,0,0-6.32,2.69c-3.26,3.39-6.63,6.68-10,9.95v4.7c0,3,.3,5.88,2.59,7.92a21.76,21.76,0,0,0,5.51,3.31,2.27,2.27,0,0,0,.47.18,2.88,2.88,0,0,0,.4.09h0l.34,0h.07a1.61,1.61,0,0,0,.39,0l18.32-.21,36.31.09,21,.06h0q14,.06,28,0a5,5,0,0,1,3.86,1.58c9.85,9.7,19.82,19.27,29.75,28.89.13.13.28.24.85.71v-31.16h13A11.67,11.67,0,0,0,353,1204a12.74,12.74,0,0,0,.24-4.25v-64.61c0-5.23-.15-10.45,0-15.67.16-4.82-4.53-10.37-10.31-10.35l-18.81,0Q324.15,1134.66,324,1160.21Z" transform="translate(-45.26 581.8)"/><circle class="cls-2" cx="201.22" cy="2575.15" r="188.4"/><path class="cls-1" d="M246.48,1796.45c-109.77,0-198.75,89-198.75,198.75s89,198.74,198.75,198.74,198.74-89,198.74-198.74S356.24,1796.45,246.48,1796.45Zm63.87,210.4-101.54,70.79V1909l101.54,70.8A16.47,16.47,0,0,1,310.35,2006.85Z" transform="translate(-45.26 581.8)"/></svg>