<svg id="Layer_1" data-name="Layer 1" xmlns="http://www.w3.org/2000/svg" viewBox="0 0 182.78 182.78"><title>Santander</title><circle cx="91.39" cy="91.39" r="91.39" fill="#fff"/><path d="M133.2,87.29a32.43,32.43,0,0,0-4.5-14.87L105.18,31.27a35.3,35.3,0,0,1-3.8-10l-1,1.73a32.8,32.8,0,0,0,0,32.85l19,32.85a32.8,32.8,0,0,1,0,32.85l-1,1.73a35.3,35.3,0,0,0-3.8-10L97.23,83.14,86.16,63.78a35.3,35.3,0,0,1-3.8-10l-1,1.73a32.8,32.8,0,0,0,0,32.85h0l19,32.85a32.8,32.8,0,0,1,0,32.85l-1,1.73a35.3,35.3,0,0,0-3.8-10L71.64,104.59a36.53,36.53,0,0,1-4.5-18c-25.25,6.57-42.88,20.75-42.88,37,0,22.82,33.89,41.15,75.74,41.15s75.74-18.33,75.74-41.15C176.08,108,158.79,93.86,133.2,87.29Z" transform="translate(-8.61 -8.61)" fill="#e92328"/></svg>