<svg id="Layer_1" data-name="Layer 1" xmlns="http://www.w3.org/2000/svg" viewBox="0 0 449.32 101.18"><title>santander_empresas</title><path d="M7110.32,7178.94a30,30,0,0,1,4.72-.43c6,0,7.39,2.06,7.39,6.35v17.21h6v-18.25c0-6.57-3.2-10.42-13.2-10.42a50.89,50.89,0,0,0-10.86,1.52v27.15h6Zm-55.77,18.57a25.37,25.37,0,0,1-9.94-2.12,18.24,18.24,0,0,0-1,5.48,26.13,26.13,0,0,0,11.13,2.06c9.23,0,14-4.29,14-10.53,0-5.27-2.88-8.36-9.78-11.3l-2.93-1.25c-3.8-1.63-5.92-3.26-5.92-6.08s2.17-4.72,6.9-4.72a27.56,27.56,0,0,1,8.91,1.58,20.86,20.86,0,0,0,1.09-5.43,29.81,29.81,0,0,0-9.94-1.57c-8.8,0-13.09,4-13.09,10.15,0,5.76,3.47,8.64,8.58,10.86l2.77,1.2c5.1,2.23,7.17,3.69,7.17,6.84s-2.82,4.83-7.87,4.83m43.28-22.59a30.44,30.44,0,0,0-10.26-1.52c-10,0-15.15,5.43-15.15,15,0,9.12,4.78,14.34,11.95,14.34,3.8,0,6.14-1.52,7.66-3.91l.33,3.26h5.49Zm-6,21a9.36,9.36,0,0,1-5.81,2c-5.32,0-7.55-3.91-7.55-9.45,0-6.08,2.88-9.88,9.07-9.88a24.56,24.56,0,0,1,4.29.33Zm140.11-22a23.33,23.33,0,0,0-4.45-.43c-10,0-15.15,5.43-15.15,15,0,9.12,4.78,14.34,11.95,14.34,3.91,0,6.24-1.57,7.76-4.13l.33,3.47h5.48v-38a18.13,18.13,0,0,0-5.92.82Zm0,21.94a9.57,9.57,0,0,1-6,2.06c-5.32,0-7.55-3.91-7.55-9.45,0-6.19,2.82-9.88,8.74-9.88a23.87,23.87,0,0,1,4.78.54Zm-80.37-7.39c0,9.12,4.78,14.34,11.95,14.34,3.8,0,6.14-1.52,7.66-3.91l.33,3.26H7177v-27.15a30.43,30.43,0,0,0-10.26-1.52c-10,0-15.15,5.43-15.15,15m19.44,7.49a9.36,9.36,0,0,1-5.81,2c-5.32,0-7.55-3.91-7.55-9.45,0-6.08,2.88-9.88,9.07-9.88a24.57,24.57,0,0,1,4.29.33Zm96.28-.33a23.28,23.28,0,0,1-9.56,2.06c-5.32,0-8.14-2.34-8.9-7.17h19.06a31.89,31.89,0,0,0,.33-4.62c0-6.84-3.69-12.43-12.22-12.43-9.5,0-13.25,6.41-13.25,14.5,0,9.29,4.83,14.83,14.82,14.83a20.55,20.55,0,0,0,8.8-1.74c.38-1.79.71-3.85.92-5.43m-11.62-17.16c4.13,0,6.52,2.61,6.52,7.06h-13.47c.49-4.62,2.72-7.06,7-7.06m-48.11,23.68v-18.25c0-6.57-3.2-10.42-13.2-10.42a50.88,50.88,0,0,0-10.86,1.52v27.15h6v-23.13a30,30,0,0,1,4.72-.43c6,0,7.39,2.06,7.39,6.35v17.21Zm-191.3-28a12.53,12.53,0,0,0-1.67-5.73l-9.05-15.68a12.53,12.53,0,0,1-1.43-3.79l-.38.66a12.54,12.54,0,0,0,0,12.54l7.24,12.54a12.55,12.55,0,0,1,0,12.54l-.38.66a12.54,12.54,0,0,0-1.43-3.79l-6.63-11.48-4.23-7.33a12.51,12.51,0,0,1-1.43-3.79l-.38.66a12.54,12.54,0,0,0,0,12.5h0l7.26,12.58a12.54,12.54,0,0,1,0,12.54l-.38.66a12.53,12.53,0,0,0-1.43-3.79l-9.05-15.68a12.54,12.54,0,0,1-1.67-6.82c-9.69,2.53-16.38,7.91-16.38,14.13,0,8.66,12.94,15.68,28.91,15.68s28.91-7,28.91-15.68c0-6.22-6.69-11.6-16.38-14.13m133.35,22.7a13.53,13.53,0,0,1-4.67.81c-2.88,0-4.62-1.36-4.62-4.89v-13.3h8.91a46.24,46.24,0,0,0,.54-5.1h-9.45v-10.26a20.66,20.66,0,0,0-6,.87v28.51c0,6.63,3.69,9.29,9.5,9.29a13.55,13.55,0,0,0,5.05-.87c.33-1.58.54-3.42.71-5m129.74-18a29.85,29.85,0,0,1,4.4-.33,38.55,38.55,0,0,1,4.51.22,22.24,22.24,0,0,0,.54-5.1,49,49,0,0,0-5.21-.22,36.35,36.35,0,0,0-10.21,1.52v27.15h6Zm-197.49,44.77a15.07,15.07,0,0,0-6.44,1.55c-1.29-1.07-3.2-1.55-5.78-1.55a28,28,0,0,0-7.25,1V7243H7065v-16.63a20.35,20.35,0,0,1,4.41-.52c3.94,0,5.41,1.47,5.41,5V7243h2.57v-12.44a9.4,9.4,0,0,0-.62-3.64,12.45,12.45,0,0,1,4.89-1.07c3.79,0,5.41,1.77,5.41,5.11v12h2.58v-12.44c0-4.45-2.21-7-7.76-7m78.29,10.08c0,6.29,3.24,9.79,8.46,9.79a7.46,7.46,0,0,0,5-1.88l.07,1.43h2.39v-18.4a16.71,16.71,0,0,0-6.14-1c-6.59,0-9.79,3.61-9.79,10.08m13.36,5.78a6.5,6.5,0,0,1-4.67,1.88c-4,0-6.07-2.91-6.07-7.65,0-4.93,2.24-7.8,7.17-7.8a13.56,13.56,0,0,1,3.57.44Zm-72.66-15.86a20.88,20.88,0,0,0-6.44,1v25.46H7097v-7.25a11.48,11.48,0,0,0,4,.63c6.11,0,9.38-3.68,9.38-10.08s-3.05-9.79-9.53-9.79m0,17.66a12.31,12.31,0,0,1-3.86-.59v-14.35a17.17,17.17,0,0,1,3.72-.44c4.89,0,7.07,2.83,7.07,7.65s-2.39,7.73-6.92,7.73m13.54-16.63V7243H7117v-16.74a18.39,18.39,0,0,1,3.61-.4,22.43,22.43,0,0,1,2.83.15,9.1,9.1,0,0,0,.26-2.21,25.79,25.79,0,0,0-3.16-.15,21.24,21.24,0,0,0-6.11,1m18.8-1c-6,0-8.5,4.34-8.5,9.83,0,6.33,3.24,10,9.38,10a11.19,11.19,0,0,0,5.85-1.4,24.56,24.56,0,0,0,.4-2.47,12.47,12.47,0,0,1-6.18,1.58c-4.19,0-6.51-2.35-6.84-6.77h13.61a15.69,15.69,0,0,0,.15-2.28c0-4.75-2.35-8.54-7.87-8.54m5.3,8.5h-11.18c.29-3.83,2.1-6.26,5.78-6.26s5.41,2.47,5.41,6.11Zm-92.27-.66h10.38a19.45,19.45,0,0,0,.29-2.47h-10.67V7220H7058a19.61,19.61,0,0,0,.29-2.47h-14.64V7243h14.68a19.42,19.42,0,0,0,.29-2.46h-12.4Zm106.26,1.14-1.73-.59c-2.28-.77-3.72-1.4-3.72-3.46,0-1.8,1.43-2.72,4.27-2.72a15.7,15.7,0,0,1,5.37.92,9.93,9.93,0,0,0,.37-2.17,16.07,16.07,0,0,0-5.81-1c-4.16,0-6.66,1.73-6.66,5,0,2.94,1.8,4.6,5.08,5.59l1.69.52c1.77.55,3.79,1.33,3.79,3.53s-1.73,3-4.56,3a12.86,12.86,0,0,1-6-1.43,7.43,7.43,0,0,0-.37,2.24,12.73,12.73,0,0,0,6.44,1.43c4.42,0,7-2,7-5.3s-2.24-4.6-5.15-5.59m77.26,10.45h2.58v-25.68a11.09,11.09,0,0,0-2.58.41Zm115.6-25.39a1.68,1.68,0,0,0-1.73,1.73,1.65,1.65,0,0,0,1.73,1.69,1.62,1.62,0,0,0,1.69-1.69,1.65,1.65,0,0,0-1.69-1.73m-25.46,21.52a7.43,7.43,0,0,1-5.22,2.1c-3.31,0-4.86-1.62-4.86-5.45V7224h-2.58v12.29c0,4.89,2.36,7.14,6.62,7.14,2.8,0,4.67-.7,6.11-2.1l.07,1.66h2.43v-19h-2.58Zm39.7-15.56c-5.7,0-9.09,3.83-9.09,10,0,5.67,3,9.82,8.87,9.82s9.13-3.83,9.13-10.12c0-5.59-2.94-9.75-8.9-9.75m-.07,17.55c-4.2,0-6.4-2.76-6.4-7.69,0-4.53,2.1-7.54,6.4-7.54s6.36,2.8,6.36,7.62c0,4.64-2.1,7.62-6.36,7.62M7336,7225.88a10.15,10.15,0,0,1,4.08.85,15,15,0,0,0,.29-2.24,10.7,10.7,0,0,0-4.38-.88c-6.55,0-9.71,4-9.71,10,0,6.33,3.57,9.86,9,9.86a8.22,8.22,0,0,0,4.75-1.29c.15-.81.26-1.73.33-2.46a8.85,8.85,0,0,1-4.86,1.47c-3.79,0-6.59-2.39-6.59-7.65,0-4.82,2.39-7.65,7.1-7.65m-147.57,6.7-1.73-.59c-2.28-.77-3.72-1.4-3.72-3.46,0-1.8,1.43-2.72,4.27-2.72a15.7,15.7,0,0,1,5.37.92,10,10,0,0,0,.37-2.17,16.07,16.07,0,0,0-5.81-1c-4.16,0-6.66,1.73-6.66,5,0,2.94,1.8,4.6,5.08,5.59l1.69.52c1.77.55,3.79,1.33,3.79,3.53s-1.73,3-4.56,3a12.86,12.86,0,0,1-6-1.43,7.36,7.36,0,0,0-.37,2.24,12.73,12.73,0,0,0,6.44,1.43c4.41,0,7-2,7-5.3s-2.24-4.6-5.15-5.59m230.54,0-1.73-.59c-2.28-.77-3.72-1.4-3.72-3.46,0-1.8,1.43-2.72,4.27-2.72a15.7,15.7,0,0,1,5.37.92,9.93,9.93,0,0,0,.37-2.17,16.07,16.07,0,0,0-5.81-1c-4.16,0-6.66,1.73-6.66,5,0,2.94,1.8,4.6,5.08,5.59l1.69.52c1.77.55,3.79,1.33,3.79,3.53s-1.73,3-4.56,3a12.86,12.86,0,0,1-6-1.43,7.4,7.4,0,0,0-.37,2.24,12.73,12.73,0,0,0,6.44,1.43c4.42,0,7-2,7-5.3s-2.24-4.6-5.15-5.59m-19.28-9c-6,0-8.5,4.34-8.5,9.83,0,6.33,3.24,10,9.38,10a11.19,11.19,0,0,0,5.85-1.4,24.25,24.25,0,0,0,.4-2.47,12.47,12.47,0,0,1-6.18,1.58c-4.19,0-6.51-2.35-6.84-6.77h13.61a15.7,15.7,0,0,0,.15-2.28c0-4.75-2.35-8.54-7.87-8.54m5.3,8.5h-11.19c.3-3.83,2.1-6.26,5.78-6.26s5.41,2.47,5.41,6.11Zm-25.76-8.5a27.38,27.38,0,0,0-6.92,1V7243h2.58v-16.63a19.31,19.31,0,0,1,4.27-.52c4.52,0,5.81,1.77,5.81,5.19v12h2.58v-12.44c0-4.45-2.1-7-8.32-7M7344.06,7243h2.58v-19h-2.58Zm-78-10.45-1.73-.59c-2.28-.77-3.72-1.4-3.72-3.46,0-1.8,1.43-2.72,4.27-2.72a15.69,15.69,0,0,1,5.37.92,9.93,9.93,0,0,0,.37-2.17,16.07,16.07,0,0,0-5.81-1c-4.16,0-6.66,1.73-6.66,5,0,2.94,1.8,4.6,5.08,5.59l1.69.52c1.77.55,3.79,1.33,3.79,3.53s-1.73,3-4.56,3a12.86,12.86,0,0,1-6-1.43,7.4,7.4,0,0,0-.37,2.24,12.73,12.73,0,0,0,6.44,1.43c4.42,0,7-2,7-5.3s-2.24-4.6-5.15-5.59m-20.46-9a27.38,27.38,0,0,0-6.92,1V7243h2.58v-16.63a19.3,19.3,0,0,1,4.27-.52c4.52,0,5.81,1.77,5.81,5.19v12h2.58v-12.44c0-4.45-2.1-7-8.32-7m-35,0c-6,0-8.5,4.34-8.5,9.83,0,6.33,3.24,10,9.38,10a11.19,11.19,0,0,0,5.85-1.4,24.52,24.52,0,0,0,.4-2.47,12.47,12.47,0,0,1-6.18,1.58c-4.19,0-6.51-2.35-6.84-6.77h13.61a15.56,15.56,0,0,0,.15-2.28c0-4.75-2.36-8.54-7.87-8.54m5.3,8.5h-11.19c.29-3.83,2.1-6.26,5.78-6.26s5.41,2.47,5.41,6.11Zm81.64,5.19v-10.82h6.4a14,14,0,0,0,.26-2.32h-6.66v-6.81a8.93,8.93,0,0,0-2.58.41v19.83c0,4.12,2.17,5.89,5.7,5.89a9.41,9.41,0,0,0,3.31-.59c.15-.7.26-1.51.33-2.21a9.64,9.64,0,0,1-3.2.59c-2.28,0-3.57-1.18-3.57-4m-20.27,0v-10.82h6.4a14.06,14.06,0,0,0,.26-2.32h-6.66v-6.81a8.93,8.93,0,0,0-2.58.41v19.83c0,4.12,2.17,5.89,5.7,5.89a9.41,9.41,0,0,0,3.31-.59c.15-.7.26-1.51.33-2.21a9.64,9.64,0,0,1-3.2.59c-2.28,0-3.57-1.18-3.57-4m11.63-19.65a1.68,1.68,0,0,0-1.73,1.73,1.65,1.65,0,0,0,1.73,1.69,1.62,1.62,0,0,0,1.69-1.69,1.65,1.65,0,0,0-1.69-1.73m-1.29,25.39h2.58v-19h-2.58Z" transform="translate(-6974.84 -7148.91)" fill="#e20514"/></svg>