<svg xmlns="http://www.w3.org/2000/svg" viewBox="0 0 611.39 106.35"><defs><style>.cls-1{fill:#ec0000;}</style></defs><title>Recurso 1</title><g id="Capa_2" data-name="Capa 2"><g id="Capa_1-2" data-name="Capa 1"><path class="cls-1" d="M0,73.25C.56,72.6.5,71.74.73,71c1.6-5.1,4.91-8.94,9-12.18,6.34-5,13.67-8,21.38-10.1.65-.19.87-.05.84.64-.18,5.37,1.78,10.07,4.46,14.61C41.18,72,45.81,80.17,50.5,88.29c2,3.45,4.14,6.84,5,11.14A21.28,21.28,0,0,0,58.8,92,24.3,24.3,0,0,0,56,73.45C51.49,65.64,46.9,57.85,42.43,50c-4.61-8.11-4.73-16.34-.31-24.6a10,10,0,0,1,.61-1c0-.07.16-.09.3-.15a30.89,30.89,0,0,0,4,9.25C53.52,44.72,60,56,66.47,67.15a26.85,26.85,0,0,1,3.16,8A24.52,24.52,0,0,0,73.54,59.5a25.59,25.59,0,0,0-3.6-10.76Q63.22,37.22,56.59,25.65c-4.63-8.1-4.81-16.32-.43-24.6.16-.3.33-.59.51-.88.07-.12.17-.22.1-.14,5.31,12.49,13.16,23.68,19.74,35.56,2.11,3.82,3.83,7.7,4.09,12.09.05,1,.72.92,1.27,1.07A66,66,0,0,1,97.28,55a35.9,35.9,0,0,1,11.15,9.39c6.08,8.11,5.47,17.37-1.69,25-5.43,5.81-12.28,9.33-19.66,12a86.79,86.79,0,0,1-23.71,4.71c-.36,0-.79-.15-1.07.25H49.49c-.1-.29-.36-.26-.6-.27-2.71-.16-5.4-.48-8.08-.9-9.09-1.44-17.84-4-25.85-8.61C9.7,93.5,5.13,89.71,2.14,84.27A34,34,0,0,1,0,78.19Z"/><path class="cls-1" d="M500.94,96.49c-2.47,3.23-5.34,5.66-9.23,6.68-9.06,2.39-21.65,0-26.71-13a38.11,38.11,0,0,1-.45-26.7c3.16-9.25,10.2-14,19.56-15.69a43,43,0,0,1,15.05,0c1.18.2,1.58,0,1.56-1.31-.08-4.84,0-9.68-.05-14.52,0-1,.21-1.46,1.22-1.73a42.06,42.06,0,0,1,9.34-1.24c.72,0,1,.2.9.89a5.9,5.9,0,0,0,0,.73q0,35.27,0,70.54c0,1.27-.25,1.74-1.63,1.67-2.56-.12-5.14-.08-7.71,0-1.05,0-1.46-.25-1.48-1.34C501.29,99.73,501.08,98.11,500.94,96.49Zm-.25-22.16c0-5,0-10.07,0-15.1,0-.88-.21-1.25-1.15-1.41a44.39,44.39,0,0,0-9.69-.78c-7.23.32-12.26,4-14.31,10.66a28.77,28.77,0,0,0,.16,17.56c1.49,4.58,4.5,7.78,9.34,8.83a18.48,18.48,0,0,0,14.57-2.82,2.22,2.22,0,0,0,1.08-2.14C500.66,84.2,500.69,79.26,500.69,74.33Z"/><path class="cls-1" d="M154.85,104.48c-6.73-.08-13.33-.87-19.64-3.4A1.73,1.73,0,0,1,133.88,99a45.68,45.68,0,0,1,1.53-8c.26-.93.56-1.16,1.58-.73a47.32,47.32,0,0,0,20.73,3.57,20.35,20.35,0,0,0,7.49-1.62A8.79,8.79,0,0,0,168.4,78.4a18.44,18.44,0,0,0-5.8-4.29c-4.15-2.21-8.54-3.87-12.81-5.82a32.46,32.46,0,0,1-9.91-6.49,19.24,19.24,0,0,1,8.89-32.34c9-2.42,18.07-1.65,27,.64,3.59.92,3.57,1,3,4.66-.28,1.87-.8,3.68-1.23,5.51-.26,1.14-.67,1.39-1.84,1a49.36,49.36,0,0,0-18.17-2.56,18.58,18.58,0,0,0-5.39,1.08c-7.15,2.5-7,10.63-3.31,14.33a22.75,22.75,0,0,0,7,4.57c4,1.78,8,3.41,11.94,5.28,4.45,2.11,8.61,4.71,11.52,8.81,7.48,10.53,2.62,24.93-9.91,29.52A42,42,0,0,1,154.85,104.48Z"/><path class="cls-1" d="M569.45,90.1c-.49,3.4-1,6.68-1.66,9.94-.14.69-.65.78-1.11,1A42.62,42.62,0,0,1,548,103.89a36.79,36.79,0,0,1-9-1.52c-8.13-2.52-13.45-7.88-15.78-16a39.68,39.68,0,0,1,.19-23c3-9.67,10.47-15.5,20.6-16.21a32.57,32.57,0,0,1,12,1c8.92,2.73,13.49,9.1,14.91,18a52.87,52.87,0,0,1,0,12.88c-.08,1-.46,1.24-1.44,1.23-11.44,0-22.89,0-34.33,0-1.22,0-1.54.15-1.24,1.48,1.84,8.14,6.88,12.14,16,12.41a43.49,43.49,0,0,0,17.87-3.27Zm-23-19.65c4,0,8,0,12.06,0,.82,0,1.07-.23,1-1-.31-6.13-3.2-11.86-11.08-12.53-7.6-.66-12.82,2.59-14.56,10.14-.15.65-.2,1.34-.39,2-.32,1.09-.09,1.5,1.17,1.48C538.63,70.39,542.56,70.45,546.48,70.45Z"/><path class="cls-1" d="M228.23,96.49a15.64,15.64,0,0,1-10.16,7c-10.18,2-21.71-1.81-26-14.8a38.84,38.84,0,0,1-.08-24.8C195,54.5,202,49.4,211.49,47.8a57.34,57.34,0,0,1,26.87,1.87,1.39,1.39,0,0,1,1.19,1.59q0,25.09,0,50.2c0,1.1-.3,1.4-1.38,1.37-2.71-.08-5.43-.07-8.15,0-.94,0-1.23-.26-1.28-1.19C228.67,100,228.44,98.45,228.23,96.49ZM227.8,74.3c0-5.17,0-10.34,0-15.51,0-.9-.24-1.24-1.16-1.36a43.05,43.05,0,0,0-9.42-.33c-7,.61-12.1,3.94-14.21,10.87a28.66,28.66,0,0,0,0,16.71c1.44,4.87,4.48,8.33,9.64,9.43a18.3,18.3,0,0,0,13.92-2.53,2.26,2.26,0,0,0,1.22-2.2C227.76,84.36,227.8,79.33,227.8,74.3Z"/><path class="cls-1" d="M382.3,96.38a15.73,15.73,0,0,1-10.36,7.07c-12.27,2.29-22.48-3.81-26.14-15.72a39.32,39.32,0,0,1-.13-22.89c2.86-9.81,9.78-15.33,19.66-17.08a59.22,59.22,0,0,1,27,1.8,1.46,1.46,0,0,1,1.29,1.67q-.07,25,0,50.07c0,1.18-.36,1.43-1.46,1.4-2.71-.07-5.43-.06-8.14,0-.89,0-1.17-.27-1.22-1.14C382.73,100,382.51,98.39,382.3,96.38ZM382,74.21c0-5.18,0-10.35,0-15.52,0-.85-.22-1.13-1.08-1.25a38.49,38.49,0,0,0-11.44-.1c-6.1,1-10.36,4.41-12.23,10.38a28.41,28.41,0,0,0,.09,17.54c1.42,4.39,4.26,7.57,8.92,8.71a18.34,18.34,0,0,0,15-2.69,1.69,1.69,0,0,0,.75-1.7C382,84.45,382,79.33,382,74.21Z"/><path class="cls-1" d="M406.29,76.38c0-8.32,0-16.65,0-25,0-1.09.34-1.47,1.37-1.69a95,95,0,0,1,21.17-2.58,43.13,43.13,0,0,1,11.36,1.46c8.07,2.28,12.44,7.69,12.84,16.07.17,3.57.12,7.16.13,10.74,0,8.66,0,17.32,0,26,0,1.16-.31,1.47-1.45,1.44-2.77-.09-5.53,0-8.3,0-2.1,0-1.88.32-1.88-1.81q0-15.24,0-30.48c0-1.07,0-2.13-.11-3.19-.42-6.32-3.36-9.3-9.67-10a55.33,55.33,0,0,0-12.47.33c-1.08.11-1.29.57-1.29,1.58,0,13.93,0,27.87.06,41.8,0,1.39-.22,2-1.78,1.86-2.61-.15-5.24,0-7.86,0-2.11,0-2.11,0-2.11-2Z"/><path class="cls-1" d="M252.15,76.33q0-12.56,0-25.11c0-.75.06-1.22,1-1.42,7.21-1.55,14.47-2.8,21.89-2.65a37.74,37.74,0,0,1,13.39,2.27c6.25,2.47,9.52,7.14,10.36,13.69a56.19,56.19,0,0,1,.27,7.1c0,10.35,0,20.71,0,31.06,0,1.33-.37,1.6-1.62,1.56-2.91-.1-5.82-.09-8.73,0-1.13,0-1.35-.34-1.34-1.39,0-10.55,0-21.1,0-31.64a20.11,20.11,0,0,0-.69-6.18c-1.31-4.19-4.67-5.68-8.61-6.28-4.46-.68-8.9-.21-13.34.31-1.12.13-1,.8-1,1.53,0,14,0,28,0,41.94,0,1.44-.38,1.77-1.76,1.71-2.86-.11-5.73-.09-8.59,0-1.12,0-1.35-.32-1.35-1.39C252.17,93.07,252.15,84.7,252.15,76.33Z"/><path class="cls-1" d="M340.39,92.64c-.44,3.08-.86,6-1.25,8.9a1.21,1.21,0,0,1-1,1.07,27,27,0,0,1-18.64-.43c-5.32-2.17-7.74-6.6-8.56-12.06a31.66,31.66,0,0,1-.29-4.77c0-17.76,0-35.51,0-53.26,0-1.23.39-1.62,1.5-1.9a53.54,53.54,0,0,1,8.9-1.32c1-.08,1.3.22,1.3,1.26-.06,5.8,0,11.61-.06,17.41,0,1.1.28,1.35,1.36,1.34,5.29-.06,10.57,0,15.86-.05,1,0,1.25.27,1.13,1.22-.33,2.59-.62,5.18-.84,7.78-.09,1-.69,1-1.4,1-4.9,0-9.8,0-14.7,0-1,0-1.42.12-1.41,1.3.06,8.22,0,16.45,0,24.67a15.25,15.25,0,0,0,.09,2c.68,4.87,3.37,7.2,8.47,7.35a23.14,23.14,0,0,0,4.78-.38C337.14,93.44,338.63,93,340.39,92.64Z"/><path class="cls-1" d="M581.39,76.35c0-8.37,0-16.74,0-25.11a1.33,1.33,0,0,1,1.19-1.55,79.43,79.43,0,0,1,25.36-2.43c.34,0,.68.06,1,.09,2.53.18,2.57.18,2.4,2.65a56.47,56.47,0,0,1-.74,6.19c-.17,1-.47,1.25-1.47,1.16a72.65,72.65,0,0,0-14.67.06c-1.13.13-1.46.45-1.46,1.64.06,14,0,28.05.08,42.08,0,1.46-.42,1.75-1.78,1.7-2.85-.11-5.72-.09-8.58,0-1.12,0-1.35-.32-1.34-1.38C581.42,93.08,581.39,84.72,581.39,76.35Z"/></g></g></svg>