<svg xmlns="http://www.w3.org/2000/svg" viewBox="0 0 396.85 396.85"><defs><style>.cls-1{fill:#ec0000;}.cls-2{fill:#e7e7e7;}</style></defs><title>Recurso 1</title><g id="Capa_2" data-name="Capa 2"><g id="Capa_1-2" data-name="Capa 1"><circle class="cls-1" cx="198.43" cy="198.43" r="198.43"/><circle class="cls-2" cx="198.43" cy="192.56" r="167.62"/><path class="cls-1" d="M319.65,76a168.59,168.59,0,1,0,47.41,117.21A168.14,168.14,0,0,0,319.65,76ZM317.2,250.21a18.66,18.66,0,0,1-2.84,9.29A19.62,19.62,0,0,1,297,269.12h-3.68v2.22c0,8.23.1,16.45-.08,24.68a7.69,7.69,0,0,1-1.79,4.87c-4.06,4.15-8.29,3.17-11.87-.51-4.1-4.21-8.38-8.23-12.59-12.33-5.67-5.52-11.47-10.92-17-16.62a7.32,7.32,0,0,0-5.91-2.51l-6.87,0-1.67,0c-4.73,0-9.47-.09-14.21-.12h-2.56v-.21H146.22l-1.63-.07a7.75,7.75,0,0,1-1.59-.25l-5.64-1.5c-6.22-3.06-9.81-7.85-11-13.94-4,3.87-8,7.71-11.92,11.7s-8.35,5-12.7.54a8.3,8.3,0,0,1-1.91-5.21c-.19-8.79-.09-17.59-.08-26.38V231c-1.41,0-2.67,0-3.94,0a21,21,0,0,1-18.52-10.28,20,20,0,0,1-3-9.94q-.36-44.28-.09-88.56c0-8.19,4.13-14.51,11.28-18.44a18.16,18.16,0,0,1,8.41-2.1c54.5-.13,109-.06,163.49-.17a20.81,20.81,0,0,1,19.64,14,33.45,33.45,0,0,1,1.75,10.15q.06,11.19.09,22.37,10,0,20,0a16.9,16.9,0,0,1,7.86,2c6.68,3.67,10.51,9.59,10.55,17.24Q317.51,208.79,317.2,250.21Z"/><path class="cls-1" d="M267.94,157.52V127.87c0-2,.06-4,0-6a10.3,10.3,0,0,0-10.62-10.14q-81.06,0-162.13-.09c-6.19,0-11.2,5.92-11,11.07.18,5.58,0,11.17,0,16.75q0,34.53,0,69.07c0,1.53-.25,3.19.25,4.55A12.49,12.49,0,0,0,96,220.89h13.9V254.2c.6-.5.76-.62.9-.76q7.56-7.31,15.12-14.62Q131,233.9,136,229q3.27-3.19,6.53-6.4a5.33,5.33,0,0,1,4.14-1.69q15,0,30,0h0l22.43-.06,38.81-.1,19.58.23a3,3,0,0,0,.42,0H258a2.36,2.36,0,0,0,.37,0h0a2.51,2.51,0,0,0,.44-.1,3.9,3.9,0,0,0,.5-.19,24,24,0,0,0,5.89-3.54c2.44-2.18,2.77-5.25,2.76-8.46Q267.91,183.08,267.94,157.52ZM136,174.11a10.44,10.44,0,0,1-14.61-9.57,10.43,10.43,0,0,1,10.41-10.44h0a10.44,10.44,0,0,1,4.17,20Zm40.63.87a10.43,10.43,0,1,1,10.45-10.44A10.44,10.44,0,0,1,176.66,175Zm44.8,0a10.43,10.43,0,1,1,10.45-10.44A10.44,10.44,0,0,1,221.46,175Z"/><path class="cls-1" d="M278.76,208.58c-.05,8.91-4,15.82-12.24,19.89l-6,1.6a8,8,0,0,1-1.7.27l-1.74.08H179.4v.22h-2.74l-15.19.13h-1.78l-7.35,0a7.9,7.9,0,0,0-6.32,2.68c-3.26,3.4-6.62,6.68-10,10,0,1.57,0,3.14,0,4.71,0,3,.3,5.88,2.59,7.92a22.36,22.36,0,0,0,5.51,3.31l.47.18.4.09h0l.34,0h.07a2.38,2.38,0,0,0,.39,0l18.32-.22,36.31.1,21,.05h0q14,0,28,0a5,5,0,0,1,3.87,1.58c9.85,9.7,19.81,19.28,29.74,28.89.13.13.29.24.85.71V259.62h13a11.68,11.68,0,0,0,10.79-7.26,12.79,12.79,0,0,0,.24-4.26q0-32.31,0-64.61c0-5.22-.14-10.45,0-15.67.15-4.81-4.54-10.36-10.32-10.35q-9.4,0-18.81,0Q278.89,183,278.76,208.58Z"/></g></g></svg>