<svg xmlns="http://www.w3.org/2000/svg" viewBox="0 0 399.05 399.05"><defs><style>.cls-1{fill:#ec0000;}.cls-2{fill:#e7e7e7;}.cls-3{fill:none;}</style></defs><title>respuesta</title><g id="Capa_2" data-name="Capa 2"><g id="Capa_1-2" data-name="Capa 1"><circle class="cls-1" cx="199.52" cy="199.52" r="199.52"/><circle class="cls-2" cx="198.8" cy="199.52" r="162.56"/><path class="cls-3" d="M326.09,132.3a41.43,41.43,0,0,0-2.17-12.56,25.7,25.7,0,0,0-24.29-17.38c-67.45.13-134.89,0-202.33.2a22.55,22.55,0,0,0-10.41,2.6C78.05,110,73,117.85,72.93,128q-.29,54.79.12,109.6a24.68,24.68,0,0,0,3.75,12.3A26,26,0,0,0,99.72,262.6h4.87v2.93c0,10.89-.14,21.78.1,32.66a10.25,10.25,0,0,0,2.37,6.45c5.38,5.48,11,4.19,15.71-.68,5.42-5.57,11.08-10.89,16.65-16.31,7.51-7.31,15.18-14.45,22.43-22a9.75,9.75,0,0,1,7.82-3.33c12.86,0,25.72-.23,38.58-.26a4.77,4.77,0,0,1,3,1.36c11,10.38,21.92,20.92,33.06,31.18a13,13,0,0,0,7.1,3.13c8.25.78,13-5.13,13.43-12.65.14-2.33,0-4.67,0-7.47,6.37,1.12,12.41,1.73,18.17,3.34a85.27,85.27,0,0,1,14.61,6.09c1.25.62,2.09,2.66,2.54,4.21,1,3.35,4.15,6.4,7.46,6.63,4.17.28,7-1.84,8.6-5.56,1.34-3.15.27-6,0-9.05a45.26,45.26,0,0,0-6.5-19.87c-1.17-2-.51-3.14,1.22-4,10.22-5,15.09-13.58,15.15-24.61Q326.4,183.55,326.09,132.3Zm-43.5,135.86a68.63,68.63,0,0,0-18.6-2.31c-3,0-6-.42-9-.69-2.15-.2-2.78.77-2.74,2.83.11,5.29,0,10.58,0,16.54a19.37,19.37,0,0,1-2.55-1.65q-13.52-12.66-27-25.36c-1.16-1.09-1.43-1.82,0-3.12,8-7.43,16-15,23.92-22.51,1.59-1.5,3.15-3,5.41-5.19v19.14c3.2.3,6,.63,8.78.82,14.43,1,26.11,7.08,34.86,18.65,1.37,1.81,2.7,3.65,3.88,5.58a6.18,6.18,0,0,1,.54,2.25C294.23,271.46,288.4,269.84,282.59,268.16Zm26.75-22.8a29.23,29.23,0,0,1-7.28,4.37c-3.42,1.58-5.09-1.79-7.07-3.32a57.81,57.81,0,0,0-24.15-11.22,19.36,19.36,0,0,1-4-1,3.44,3.44,0,0,1-1.92-2,36.81,36.81,0,0,1-.09-5.66c0-5.66-2.84-9.58-7.53-12.29-2.7-1.56-10.17-.47-12.58,1.81-11.51,10.91-22.94,21.89-34.49,32.77a5.56,5.56,0,0,1-3.47,1.21q-22,.12-44,0a6.57,6.57,0,0,0-5.12,2.09c-13,12.83-26.21,25.5-39.35,38.22-.18.17-.37.31-1.12.94V250H99.89c-6.14,0-12.2-3.92-14.28-9.61-.62-1.69-.31-3.74-.31-5.63q0-42.73,0-85.48c0-6.91.19-13.82,0-20.72-.21-6.38,6-13.72,13.65-13.7q100.32.24,200.64.11a12.74,12.74,0,0,1,13.14,12.54c.12,2.46,0,4.92,0,7.38q0,50,0,100C312.78,238.86,312.37,242.66,309.34,245.36Z"/><path class="cls-1" d="M312.73,134.92c0-2.46.08-4.92,0-7.38A12.74,12.74,0,0,0,299.55,115q-100.32,0-200.64-.11c-7.65,0-13.86,7.32-13.65,13.7.23,6.9,0,13.81,0,20.72q0,42.75,0,85.48c0,1.89-.31,3.94.31,5.63,2.08,5.69,8.14,9.6,14.28,9.61h17.2v41.23c.75-.63.94-.77,1.12-.94,13.14-12.72,26.32-25.39,39.35-38.22a6.57,6.57,0,0,1,5.12-2.09q22,.06,44,0a5.56,5.56,0,0,0,3.47-1.21c11.55-10.88,23-21.86,34.49-32.77,2.41-2.28,9.88-3.37,12.58-1.81,4.69,2.71,7.57,6.63,7.53,12.29a36.81,36.81,0,0,0,.09,5.66,3.44,3.44,0,0,0,1.92,2,19.36,19.36,0,0,0,4,1A57.81,57.81,0,0,1,295,246.41c2,1.53,3.65,4.9,7.07,3.32a29.23,29.23,0,0,0,7.28-4.37c3-2.7,3.44-6.5,3.43-10.48Q312.65,184.9,312.73,134.92Zm-168.4,58.3a12.92,12.92,0,1,1,12.93-12.92A12.91,12.91,0,0,1,144.33,193.22Zm55.44,0A12.92,12.92,0,1,1,212.7,180.3,12.91,12.91,0,0,1,199.77,193.22Zm55.44,0a12.92,12.92,0,1,1,12.93-12.92A12.91,12.91,0,0,1,255.21,193.22Z"/><path class="cls-1" d="M295.72,265.31c-8.75-11.57-20.43-17.67-34.86-18.65-2.8-.19-5.58-.52-8.78-.82V226.7c-2.26,2.17-3.82,3.69-5.41,5.19-8,7.52-15.88,15.08-23.92,22.51-1.4,1.3-1.13,2,0,3.12q13.51,12.66,27,25.36a19.37,19.37,0,0,0,2.55,1.65c0-6,.07-11.25,0-16.54,0-2.06.59-3,2.74-2.83,3,.27,6,.65,9,.69a68.63,68.63,0,0,1,18.6,2.31c5.81,1.68,11.64,3.3,17.55,5a6.18,6.18,0,0,0-.54-2.25C298.42,269,297.09,267.12,295.72,265.31Z"/><path class="cls-1" d="M199.52,31A168.58,168.58,0,1,0,368.1,199.52,168.57,168.57,0,0,0,199.52,31ZM311,259.41c-1.73.86-2.39,2-1.22,4a45.26,45.26,0,0,1,6.5,19.87c.23,3.05,1.3,5.9,0,9.05-1.59,3.72-4.43,5.84-8.6,5.56-3.31-.23-6.5-3.28-7.46-6.63-.45-1.55-1.29-3.59-2.54-4.21A85.27,85.27,0,0,0,283,281c-5.76-1.61-11.8-2.22-18.17-3.34,0,2.8.11,5.14,0,7.47-.43,7.52-5.18,13.43-13.43,12.65a13,13,0,0,1-7.1-3.13c-11.14-10.26-22-20.8-33.06-31.18a4.77,4.77,0,0,0-3-1.36c-12.86,0-25.72.28-38.58.26a9.75,9.75,0,0,0-7.82,3.33c-7.25,7.54-14.92,14.68-22.43,22-5.57,5.42-11.23,10.74-16.65,16.31-4.74,4.87-10.33,6.16-15.71.68a10.25,10.25,0,0,1-2.37-6.45c-.24-10.88-.1-21.77-.1-32.66V262.6H99.72A26,26,0,0,1,76.8,249.88a24.68,24.68,0,0,1-3.75-12.3q-.43-54.79-.12-109.6c.06-10.13,5.12-18,14-22.82a22.55,22.55,0,0,1,10.41-2.6c67.44-.16,134.88-.07,202.33-.2a25.7,25.7,0,0,1,24.29,17.38,41.43,41.43,0,0,1,2.17,12.56q.26,51.24,0,102.5C326.06,245.83,321.19,254.38,311,259.41Z"/></g></g></svg>