<?xml version="1.0" encoding="iso-8859-1"?>
<!-- Generator: Adobe Illustrator 24.0.2, SVG Export Plug-In . SVG Version: 6.00 Build 0)  -->
<svg version="1.1" id="Capa_1" xmlns="http://www.w3.org/2000/svg" xmlns:xlink="http://www.w3.org/1999/xlink" x="0px" y="0px"
	 viewBox="0 0 400 400" style="enable-background:new 0 0 400 400;" xml:space="preserve">
<g>
	<circle style="fill:#EC0000;" cx="200.231" cy="200" r="199.525"/>
	<g>
		<circle style="fill:#E7E7E7;" cx="199.503" cy="200" r="162.561"/>
		<path style="fill:none;" d="M326.801,132.773c-0.021-4.201-0.854-8.558-2.17-12.561c-3.229-9.823-12.947-17.402-24.298-17.38
			c-67.442,0.133-134.884,0.041-202.325,0.199c-3.495,0.008-7.362,0.93-10.407,2.605c-8.84,4.863-13.906,12.689-13.959,22.817
			c-0.194,36.533-0.179,73.068,0.117,109.6c0.034,4.144,1.53,8.778,3.751,12.3c5.172,8.201,12.94,12.686,22.916,12.72
			c1.567,0.005,3.134,0.001,4.869,0.001c0,1.257,0,2.097,0,2.936c-0.002,10.885-0.133,21.772,0.101,32.651
			c0.047,2.199,0.889,4.941,2.369,6.45c5.38,5.485,10.974,4.189,15.71-0.676c5.419-5.567,11.086-10.893,16.655-16.315
			c7.503-7.305,15.179-14.443,22.43-21.99c2.348-2.444,4.586-3.327,7.82-3.324c12.861,0.014,25.722-0.229,38.583-0.265
			c0.992-0.003,2.192,0.647,2.95,1.36c11.029,10.386,21.92,20.92,33.064,31.18c1.82,1.676,4.632,2.903,7.099,3.136
			c8.247,0.779,12.998-5.133,13.435-12.651c0.136-2.33,0.021-4.675,0.021-7.473c6.375,1.122,12.415,1.731,18.176,3.338
			c5.051,1.409,9.88,3.754,14.604,6.095c1.255,0.622,2.095,2.657,2.541,4.211c0.96,3.343,4.152,6.396,7.46,6.623
			c4.173,0.286,7.012-1.834,8.599-5.557c1.343-3.149,0.277-6.002,0.049-9.047c-0.54-7.209-2.886-13.742-6.509-19.873
			c-1.167-1.975-0.508-3.14,1.228-3.996c10.222-5.037,15.087-13.585,15.148-24.613C327.016,201.109,326.971,166.94,326.801,132.773z
			 M283.296,268.633c-6.083-1.756-12.304-2.247-18.603-2.313c-2.991-0.031-5.981-0.413-8.967-0.687
			c-2.145-0.196-2.782,0.772-2.738,2.835c0.111,5.288,0.037,10.581,0.037,16.535c-1.15-0.734-1.949-1.088-2.55-1.651
			c-9.007-8.44-17.98-16.916-26.983-25.361c-1.161-1.089-1.439-1.815-0.035-3.114c8.035-7.438,15.96-14.995,23.918-22.516
			c1.588-1.501,3.156-3.022,5.413-5.184c0,6.824,0,12.774,0,19.142c3.199,0.3,5.982,0.623,8.774,0.813
			c14.434,0.982,26.116,7.085,34.864,18.652c1.367,1.807,2.704,3.649,3.878,5.583c0.468,0.772,0.455,1.836,0.547,2.25
			C294.934,271.94,289.108,270.311,283.296,268.633z M310.051,245.833c-2.082,1.856-4.72,3.192-7.287,4.377
			c-3.419,1.578-5.087-1.798-7.072-3.329c-7.243-5.589-15.198-9.401-24.144-11.215c-1.361-0.276-2.783-0.463-4.029-1.021
			c-0.808-0.362-1.8-1.253-1.918-2.028c-0.281-1.851-0.105-3.773-0.093-5.666c0.035-5.657-2.841-9.577-7.532-12.289
			c-2.695-1.558-10.174-0.469-12.577,1.81c-11.509,10.911-22.946,21.898-34.49,32.771c-0.824,0.776-2.3,1.206-3.477,1.212
			c-14.683,0.08-29.367,0.071-44.05,0.029c-2.054-0.006-3.534,0.536-5.114,2.091c-13.031,12.827-26.214,25.5-39.353,38.218
			c-0.175,0.17-0.374,0.315-1.124,0.939c0-14.08,0-27.485,0-41.226c-5.892,0-11.542,0.008-17.193-0.002
			c-6.147-0.01-12.203-3.917-14.28-9.606c-0.618-1.692-0.314-3.746-0.315-5.633c-0.011-28.492-0.004-56.985,0.001-85.477
			c0.001-6.91,0.187-13.826-0.038-20.728c-0.208-6.372,5.998-13.714,13.648-13.695c66.88,0.162,133.761,0.092,200.642,0.109
			c7.355,0.002,12.799,5.215,13.14,12.542c0.115,2.455,0.037,4.92,0.037,7.381c-0.001,33.32-0.039,66.64,0.041,99.959
			C313.485,239.331,313.078,243.135,310.051,245.833z"/>
		<path style="fill:#EC0000;" d="M313.434,135.397c0-2.46,0.078-4.925-0.037-7.381c-0.342-7.327-5.786-12.541-13.14-12.542
			c-66.881-0.017-133.762,0.053-200.642-0.109c-7.651-0.019-13.856,7.323-13.648,13.695c0.225,6.903,0.039,13.818,0.038,20.728
			c-0.005,28.492-0.012,56.985-0.001,85.477c0.001,1.888-0.303,3.941,0.315,5.633c2.076,5.689,8.133,9.596,14.28,9.606
			c5.651,0.01,11.301,0.002,17.193,0.002c0,13.741,0,27.146,0,41.226c0.75-0.624,0.949-0.769,1.124-0.939
			c13.139-12.718,26.322-25.39,39.353-38.218c1.58-1.555,3.059-2.097,5.114-2.091c14.683,0.042,29.367,0.051,44.05-0.029
			c1.176-0.006,2.652-0.436,3.477-1.212c11.544-10.873,22.981-21.86,34.49-32.771c2.404-2.279,9.882-3.368,12.577-1.81
			c4.691,2.711,7.568,6.632,7.532,12.289c-0.012,1.893-0.188,3.815,0.093,5.666c0.118,0.774,1.11,1.666,1.918,2.028
			c1.246,0.558,2.668,0.745,4.029,1.021c8.947,1.814,16.901,5.627,24.144,11.215c1.984,1.531,3.652,4.907,7.072,3.329
			c2.567-1.184,5.204-2.521,7.287-4.377c3.027-2.697,3.434-6.502,3.424-10.476C313.395,202.037,313.433,168.717,313.434,135.397z
			 M145.038,193.698c-7.138,0-12.923-5.786-12.923-12.923s5.786-12.923,12.923-12.923c7.137,0,12.923,5.786,12.923,12.923
			S152.176,193.698,145.038,193.698z M200.478,193.698c-7.137,0-12.923-5.786-12.923-12.923s5.786-12.923,12.923-12.923
			c7.138,0,12.923,5.786,12.923,12.923S207.616,193.698,200.478,193.698z M255.919,193.698c-7.137,0-12.923-5.786-12.923-12.923
			s5.786-12.923,12.923-12.923c7.137,0,12.923,5.786,12.923,12.923S263.056,193.698,255.919,193.698z"/>
		<path style="fill:#EC0000;" d="M296.426,265.785c-8.748-11.566-20.43-17.67-34.864-18.652c-2.792-0.19-5.575-0.513-8.774-0.813
			c0-6.367,0-12.317,0-19.142c-2.257,2.163-3.825,3.684-5.413,5.184c-7.958,7.521-15.883,15.078-23.918,22.516
			c-1.404,1.299-1.127,2.025,0.035,3.114c9.003,8.444,17.976,16.92,26.983,25.361c0.602,0.564,1.4,0.917,2.55,1.651
			c0-5.955,0.074-11.247-0.037-16.535c-0.043-2.063,0.593-3.031,2.738-2.835c2.986,0.273,5.975,0.656,8.967,0.687
			c6.299,0.065,12.52,0.556,18.603,2.313c5.812,1.678,11.638,3.307,17.554,4.985c-0.092-0.414-0.078-1.478-0.547-2.25
			C299.13,269.434,297.793,267.592,296.426,265.785z"/>
		<path style="fill:#EC0000;" d="M200.232,31.427c-93.101,0-168.574,75.473-168.574,168.573s75.473,168.573,168.574,168.573
			S368.805,293.101,368.805,200S293.332,31.427,200.232,31.427z M311.68,259.888c-1.736,0.856-2.394,2.021-1.228,3.996
			c3.623,6.131,5.969,12.664,6.509,19.873c0.228,3.045,1.294,5.899-0.049,9.047c-1.588,3.723-4.426,5.843-8.599,5.557
			c-3.308-0.227-6.5-3.28-7.46-6.623c-0.446-1.554-1.286-3.589-2.541-4.211c-4.724-2.341-9.553-4.686-14.604-6.095
			c-5.762-1.607-11.802-2.215-18.176-3.338c0,2.797,0.115,5.142-0.021,7.473c-0.438,7.518-5.188,13.43-13.435,12.651
			c-2.467-0.233-5.279-1.46-7.099-3.136c-11.144-10.26-22.035-20.795-33.064-31.18c-0.758-0.713-1.958-1.363-2.95-1.36
			c-12.861,0.036-25.722,0.279-38.583,0.265c-3.234-0.004-5.472,0.88-7.82,3.324c-7.251,7.547-14.926,14.685-22.43,21.99
			c-5.568,5.421-11.236,10.747-16.655,16.315c-4.736,4.865-10.33,6.161-15.71,0.676c-1.48-1.508-2.321-4.25-2.369-6.45
			c-0.234-10.879-0.103-21.767-0.101-32.651c0-0.84,0-1.679,0-2.936c-1.735,0-3.302,0.005-4.869-0.001
			c-9.977-0.035-17.745-4.519-22.916-12.72c-2.221-3.523-3.718-8.157-3.751-12.3c-0.295-36.531-0.31-73.067-0.117-109.6
			c0.054-10.128,5.119-17.954,13.959-22.817c3.045-1.675,6.912-2.597,10.407-2.605c67.441-0.158,134.883-0.066,202.325-0.199
			c11.352-0.022,21.07,7.557,24.298,17.38c1.316,4.003,2.149,8.36,2.17,12.561c0.17,34.167,0.215,68.336,0.026,102.503
			C326.766,246.304,321.901,254.851,311.68,259.888z"/>
	</g>
</g>
<g>
	<circle style="fill:#EC0000;" cx="198.8" cy="-220.444" r="198.427"/>
	<g>
		<circle style="fill:#E7E7E7;" cx="198.8" cy="-226.314" r="167.622"/>
		<g>
			<path style="fill:#EC0000;" d="M320.022-342.839c-30.66-31.703-73.635-51.421-121.221-51.421s-90.562,19.718-121.221,51.421
				c-29.344,30.343-47.407,71.663-47.407,117.208s18.063,86.865,47.407,117.208c30.66,31.703,73.635,51.421,121.221,51.421
				s90.562-19.718,121.221-51.421c29.344-30.343,47.407-71.663,47.407-117.208S349.366-312.497,320.022-342.839z M317.569-168.665
				c-0.025,3.132-1.156,6.635-2.836,9.297c-3.909,6.199-9.78,9.589-17.322,9.615c-1.184,0.004-2.369,0.001-3.68,0.001
				c0,0.95,0,1.585,0,2.22c0.002,8.227,0.101,16.456-0.076,24.68c-0.036,1.662-0.672,3.735-1.79,4.875
				c-4.066,4.146-8.295,3.167-11.874-0.511c-4.096-4.208-8.38-8.234-12.589-12.332c-5.672-5.521-11.473-10.917-16.954-16.621
				c-1.775-1.847-3.466-2.515-5.911-2.512c-2.293,0.003-4.586-0.007-6.879-0.022c-0.554-0.003-1.108-0.008-1.662-0.012
				c-4.737-0.036-9.474-0.089-14.211-0.128l0-0.002h-0.282c-0.011,0-0.021,0-0.032,0c-0.748-0.006-1.496-0.008-2.244-0.014v-0.206
				h-72.633l-1.633-0.077c-0.537-0.025-1.07-0.108-1.59-0.246l-5.639-1.5c-6.217-3.064-9.808-7.848-10.999-13.943
				c-4.003,3.872-8.041,7.71-11.924,11.699c-3.827,3.932-8.347,4.979-12.695,0.546c-1.196-1.219-1.876-3.435-1.914-5.212
				c-0.189-8.792-0.083-17.589-0.081-26.385c0-0.679,0-1.357,0-2.373c-1.402,0-2.668,0.004-3.935-0.001
				c-8.062-0.028-14.339-3.652-18.518-10.279c-1.795-2.847-3.004-6.591-3.032-9.94c-0.238-29.521-0.251-59.044-0.094-88.566
				c0.043-8.184,4.137-14.508,11.28-18.438c2.461-1.353,5.586-2.099,8.41-2.105c54.498-0.127,108.997-0.053,163.496-0.16
				c9.173-0.018,17.026,6.106,19.635,14.044c1.063,3.235,1.737,6.756,1.754,10.15c0.037,7.456,0.065,14.912,0.086,22.368
				c6.679,0.01,13.358,0.016,20.038,0.031c2.641,0.006,5.565,0.703,7.866,1.969c6.682,3.676,10.511,9.591,10.551,17.246
				C317.804-223.893,317.792-196.277,317.569-168.665z"/>
			<path style="fill:#EC0000;" d="M268.309-261.35c0.001-3.14,0.001-6.28,0.002-9.421c0.002-6.743,0.004-13.487,0.004-20.23
				c0-1.988,0.063-3.98-0.03-5.964c-0.276-5.921-4.675-10.134-10.618-10.135c-54.045-0.013-108.091,0.043-162.136-0.088
				c-6.182-0.015-11.197,5.918-11.029,11.067c0.182,5.578,0.032,11.166,0.031,16.75c-0.004,23.024-0.01,46.048-0.001,69.073
				c0.001,1.526-0.245,3.185,0.254,4.552c1.678,4.597,6.572,7.754,11.539,7.763c4.566,0.008,9.132,0.002,13.893,0.002
				c0,11.104,0,21.936,0,33.314c0.606-0.505,0.767-0.622,0.909-0.759c5.038-4.876,10.083-9.745,15.121-14.622
				c3.389-3.282,6.772-6.569,10.148-9.865c2.181-2.129,4.36-4.258,6.532-6.396c1.277-1.257,2.472-1.695,4.132-1.69
				c9.992,0.028,19.984,0.028,29.976-0.008l0,0.01l22.423-0.061l38.813-0.105l19.585,0.233c0.135,0.024,0.274,0.038,0.418,0.04
				c0.024,0,0.05-0.005,0.074-0.005c0.121-0.001,0.242-0.006,0.369-0.025h0.001v0c0.012-0.002,0.026-0.007,0.038-0.009
				c0.141-0.023,0.284-0.053,0.433-0.099c0.162-0.05,0.329-0.114,0.502-0.193c2.075-0.957,4.206-2.037,5.888-3.537
				c2.446-2.18,2.775-5.254,2.767-8.466C268.307-227.267,268.305-244.308,268.309-261.35z M136.407-244.76
				c-1.278,0.558-2.687,0.872-4.171,0.872c-2.21,0-4.255-0.69-5.943-1.861c-2.718-1.886-4.5-5.024-4.5-8.582
				c0-5.757,4.659-10.425,10.413-10.442c0.01,0,0.02-0.001,0.03-0.001c3.719,0,6.976,1.95,8.826,4.878
				c1.019,1.612,1.617,3.517,1.617,5.565C142.679-250.048,140.097-246.371,136.407-244.76z M177.036-243.889
				c-5.768,0-10.443-4.676-10.443-10.443c0-2.69,1.026-5.134,2.696-6.985c1.911-2.119,4.67-3.458,7.747-3.458
				c3.078,0,5.836,1.339,7.747,3.458c1.67,1.851,2.696,4.296,2.696,6.985C187.48-248.564,182.804-243.889,177.036-243.889z
				 M221.837-243.889c-5.768,0-10.443-4.676-10.443-10.443c0-2.692,1.027-5.138,2.7-6.989c1.911-2.116,4.668-3.454,7.743-3.454
				c3.072,0,5.825,1.334,7.736,3.446c1.677,1.853,2.707,4.302,2.707,6.998C232.28-248.564,227.604-243.889,221.837-243.889z"/>
			<path style="fill:#EC0000;" d="M279.137-210.29c-0.049,8.911-3.981,15.819-12.24,19.889l-6.029,1.603
				c-0.556,0.148-1.126,0.236-1.7,0.263l-1.746,0.082h-77.651v0.22c-0.8,0.006-1.599,0.008-2.399,0.015c-0.011,0-0.023,0-0.034,0
				h-0.301l0,0.002c-5.064,0.041-10.129,0.098-15.193,0.136c-0.592,0.004-1.185,0.009-1.777,0.013
				c-2.451,0.016-4.903,0.026-7.354,0.023c-2.614-0.003-4.422,0.711-6.319,2.686c-3.259,3.392-6.625,6.679-10.013,9.947
				c-0.003,1.569-0.001,3.138-0.005,4.707c-0.007,3.004,0.3,5.88,2.588,7.919c1.574,1.403,3.568,2.413,5.508,3.308
				c0.162,0.075,0.318,0.134,0.47,0.181c0.139,0.043,0.273,0.071,0.405,0.092c0.012,0.002,0.024,0.007,0.036,0.008v0h0.001
				c0,0,0,0,0,0c0.119,0.018,0.233,0.022,0.345,0.023c0.023,0,0.047,0.005,0.07,0.005c0.134-0.002,0.264-0.015,0.391-0.037
				l18.319-0.218l36.305,0.098l20.974,0.057l0-0.009c9.346,0.034,18.693,0.034,28.039,0.008c1.553-0.004,2.671,0.405,3.865,1.581
				c9.849,9.696,19.814,19.275,29.745,28.887c0.132,0.128,0.283,0.238,0.85,0.71c0-10.642,0-20.775,0-31.161
				c4.453,0,8.724,0.006,12.995-0.002c4.646-0.008,9.224-2.961,10.793-7.261c0.467-1.279,0.238-2.831,0.238-4.258
				c0.009-21.536,0.003-43.073,0-64.609c-0.001-5.223-0.141-10.45,0.029-15.668c0.157-4.816-4.533-10.366-10.316-10.352
				c-6.269,0.015-12.537,0.021-18.806,0.031C279.247-244.342,279.231-227.316,279.137-210.29z"/>
		</g>
	</g>
</g>
<g>
	<circle style="fill:#E7E7E7;" cx="201.592" cy="622.845" r="188.402"/>
	<path style="fill:#EC0000;" d="M201.592,425.953C91.827,425.953,2.845,514.935,2.845,624.7s88.982,198.747,198.747,198.747
		S400.339,734.465,400.339,624.7S311.357,425.953,201.592,425.953z M265.463,636.352l-101.539,70.795V538.544l101.539,70.795
		C274.86,615.891,274.86,629.799,265.463,636.352z"/>
</g>
</svg>
